<svg width="50" height="35" viewBox="0 0 50 35" fill="none" xmlns="http://www.w3.org/2000/svg">
<path d="M0 4.34049C0 1.9433 1.9433 0 4.34049 0H45.5751C47.9723 0 49.9156 1.9433 49.9156 4.34049V30.3834C49.9156 32.7806 47.9723 34.7239 45.5751 34.7239H4.34048C1.9433 34.7239 0 32.7806 0 30.3834V4.34049Z" fill="#1F72CD"/>
<path fill-rule="evenodd" clip-rule="evenodd" d="M8.81932 12.2981L4.2168 22.7829H9.72666L10.4097 21.1112H11.9711L12.6541 22.7829H18.7189V21.507L19.2593 22.7829H22.3965L22.937 21.48V22.7829H35.5501L37.0838 21.1546L38.5199 22.7829L44.9983 22.7964L40.3812 17.5698L44.9983 12.2981H38.6204L37.1274 13.8963L35.7365 12.2981H22.0151L20.8368 15.0043L19.6309 12.2981H14.1325V13.5306L13.5209 12.2981H8.81932ZM9.88542 13.787H12.5712L15.624 20.8968V13.787H18.5662L20.9242 18.8846L23.0973 13.787H26.0248V21.3105H24.2435L24.2289 15.4151L21.632 21.3105H20.0385L17.4271 15.4151V21.3105H13.7625L13.0678 19.6238H9.3145L8.62121 21.309H6.65781L9.88542 13.787ZM34.8975 13.787H27.6545V21.306H34.7854L37.0838 18.8141L39.2991 21.306H41.6149L38.249 17.5683L41.6149 13.787H39.3996L37.1129 16.2503L34.8975 13.787ZM11.192 15.0599L9.95544 18.0646H12.4271L11.192 15.0599ZM29.4431 16.7181V15.3447V15.3434H33.9626L35.9346 17.5398L33.8752 19.7483H29.4431V18.2489H33.3945V16.7181H29.4431Z" fill="white"/>
</svg>
