<svg width="50" height="21" viewBox="0 0 50 21" fill="none" xmlns="http://www.w3.org/2000/svg">
<path d="M9.12133 2.64255C8.53626 3.33488 7.60015 3.88094 6.66404 3.80294C6.54703 2.86683 7.00533 1.87221 7.54164 1.25789C8.12671 0.546062 9.15058 0.0390045 9.97942 0C10.0769 0.975112 9.69664 1.93072 9.12133 2.64255ZM9.96967 3.98821C8.61427 3.9102 7.45389 4.75854 6.81031 4.75854C6.15699 4.75854 5.17212 4.02721 4.0995 4.04671C2.70509 4.06622 1.40819 4.85606 0.696361 6.11395C-0.766307 8.62974 0.316068 12.3547 1.72998 14.4024C2.42231 15.4165 3.25115 16.5281 4.34328 16.4891C5.3769 16.4501 5.78644 15.8163 7.03459 15.8163C8.29248 15.8163 8.65327 16.4891 9.7454 16.4696C10.8765 16.4501 11.5884 15.4555 12.2807 14.4414C13.0705 13.2908 13.3923 12.1694 13.4118 12.1109C13.3923 12.0914 11.2276 11.2625 11.2081 8.76625C11.1886 6.67951 12.9145 5.6849 12.9925 5.62639C12.0174 4.18323 10.4962 4.02721 9.96967 3.98821ZM17.7998 1.16038V16.3624H20.1596V11.165H23.4262C26.4101 11.165 28.5065 9.11729 28.5065 6.15295C28.5065 3.18862 26.4491 1.16038 23.5042 1.16038H17.7998ZM20.1596 3.14961H22.8802C24.9279 3.14961 26.098 4.24174 26.098 6.16271C26.098 8.08368 24.9279 9.18555 22.8704 9.18555H20.1596V3.14961ZM32.8165 16.4794C34.2987 16.4794 35.6736 15.7285 36.2977 14.5389H36.3464V16.3624H38.5307V8.79551C38.5307 6.60151 36.7755 5.18759 34.0744 5.18759C31.5684 5.18759 29.7157 6.62101 29.6474 8.59073H31.7732C31.9487 7.65463 32.8165 7.04031 34.0062 7.04031C35.4493 7.04031 36.2587 7.71313 36.2587 8.95152V9.79012L33.3138 9.96564C30.5738 10.1314 29.0916 11.2528 29.0916 13.203C29.0916 15.1727 30.6225 16.4794 32.8165 16.4794ZM33.4504 14.6754C32.1925 14.6754 31.3929 14.0709 31.3929 13.1445C31.3929 12.1889 32.1632 11.6331 33.6356 11.5453L36.2587 11.3796V12.2377C36.2587 13.6613 35.0495 14.6754 33.4504 14.6754ZM41.4463 20.4968C43.7475 20.4968 44.8299 19.6192 45.7758 16.9572L49.92 5.33386H47.5212L44.7422 14.3146H44.6934L41.9143 5.33386H39.4473L43.4453 16.4014L43.2307 17.0742C42.8699 18.2151 42.2849 18.6539 41.2415 18.6539C41.0562 18.6539 40.6954 18.6344 40.5492 18.6149V20.4383C40.6857 20.4773 41.2708 20.4968 41.4463 20.4968Z" fill="black"/>
</svg>
