<svg width="71" height="16" viewBox="0 0 71 16" fill="none" xmlns="http://www.w3.org/2000/svg">
<path d="M27.9492 5.99462C27.887 6.03235 27.8129 6.04543 27.7416 6.03137C27.6703 6.01731 27.6067 5.97706 27.5635 5.91856C27.3511 5.6136 27.066 5.36637 26.7341 5.19915C26.4022 5.03192 26.0339 4.95001 25.6624 4.96077C24.2139 4.96077 23.3249 6.10685 23.3249 7.74366C23.3249 9.38042 24.2302 10.5483 25.6787 10.5483C26.0551 10.5573 26.4277 10.47 26.761 10.2948C27.0943 10.1196 27.3774 9.86219 27.5834 9.547C27.6246 9.48774 27.6866 9.44611 27.757 9.43036C27.8274 9.41461 27.9011 9.42584 27.9637 9.4619L28.6517 9.86024C28.6893 9.87928 28.7223 9.9062 28.7485 9.93915C28.7748 9.97214 28.7936 10.0104 28.8037 10.0512C28.8138 10.0921 28.815 10.1347 28.8073 10.1761C28.7995 10.2175 28.7828 10.2568 28.7585 10.2912C28.4222 10.7953 27.9633 11.2058 27.4249 11.4842C26.8866 11.7626 26.2863 11.8996 25.6805 11.8827C23.3647 11.8827 21.7949 10.2024 21.7949 7.75269C21.7949 5.30296 23.3647 3.64447 25.6461 3.64447C26.2418 3.62792 26.8325 3.75757 27.3666 4.02207C27.9006 4.28656 28.3617 4.67785 28.7096 5.16175C28.7335 5.19434 28.7505 5.23149 28.7595 5.27091C28.7684 5.31029 28.7692 5.35112 28.7617 5.39087C28.7543 5.43058 28.7387 5.46834 28.716 5.50183C28.6934 5.53529 28.6641 5.56373 28.63 5.58541L27.9492 5.99462Z" fill="#494A4C"/>
<path fill-rule="evenodd" clip-rule="evenodd" d="M33.0116 11.4386V11.1054C32.6495 11.5725 32.1444 11.8622 31.3314 11.8622C30.1291 11.8622 29.2945 11.205 29.2945 10.0516C29.2945 8.61583 30.5746 8.36958 31.364 8.25916C31.4264 8.25008 31.4882 8.24136 31.549 8.23277C32.3139 8.12478 32.9338 8.03727 32.9338 7.52406C32.9338 7.03337 32.367 6.90119 31.8873 6.90119C31.3365 6.91037 30.7954 7.04735 30.3066 7.30133C30.2727 7.31998 30.2353 7.33154 30.1968 7.33534C30.1583 7.33913 30.1194 7.33505 30.0825 7.32338C30.0456 7.3117 30.0115 7.29266 29.9821 7.26737C29.9528 7.24211 29.9289 7.21118 29.9119 7.17642L29.6638 6.65859C29.6306 6.59149 29.6246 6.51424 29.6468 6.44277C29.6691 6.3713 29.7179 6.31114 29.7833 6.27475C30.4679 5.91031 31.2312 5.71884 32.0068 5.71707C33.3864 5.71707 34.3605 6.28378 34.3605 7.65443V11.4386C34.3605 11.5154 34.33 11.5891 34.2757 11.6434C34.2213 11.6977 34.1477 11.7282 34.0709 11.7282H33.314C33.2749 11.7299 33.2359 11.7237 33.1992 11.7099C33.1626 11.6962 33.1292 11.6751 33.1009 11.648C33.0727 11.6209 33.0502 11.5884 33.0348 11.5524C33.0195 11.5164 33.0116 11.4777 33.0116 11.4386ZM32.9338 8.82226C32.6969 9.00113 32.2821 9.07387 31.8249 9.15407C31.7684 9.16398 31.7112 9.174 31.6537 9.18435C31.1304 9.27851 30.6959 9.41792 30.6959 9.98647C30.6959 10.5097 31.0743 10.7542 31.6211 10.7542C32.3001 10.7542 32.9338 10.3757 32.9338 9.49578V8.82226Z" fill="#494A4C"/>
<path d="M35.7968 10.13C35.7222 10.1371 35.6533 10.1728 35.6044 10.2297L35.2097 10.6896C35.1846 10.7193 35.1656 10.7537 35.1539 10.7908C35.1422 10.828 35.138 10.867 35.1415 10.9058C35.145 10.9445 35.1563 10.9822 35.1745 11.0166C35.1927 11.051 35.2176 11.0814 35.2478 11.1061C35.9189 11.6282 36.7515 11.8997 37.6017 11.8737C39.1569 11.8737 40.1365 11.1169 40.1365 9.89295C40.1365 8.72693 39.2454 8.32679 37.8423 8.08235C37.8126 8.07727 37.7829 8.07225 37.7533 8.06723C37.1272 7.96129 36.5296 7.86018 36.5296 7.41244C36.5296 6.99058 36.9968 6.83485 37.5309 6.83485C38.0837 6.8282 38.6239 7.00099 39.0698 7.32734C39.1294 7.37219 39.2042 7.39246 39.2783 7.38404C39.3524 7.37562 39.4203 7.33912 39.4684 7.28207L39.8304 6.8566C39.8561 6.82693 39.8756 6.79235 39.8879 6.75492C39.8998 6.71752 39.9041 6.67803 39.9002 6.6389C39.8965 6.59976 39.885 6.56182 39.8662 6.52735C39.847 6.49284 39.8214 6.46256 39.7907 6.43832C39.1565 5.95728 38.3793 5.70232 37.5833 5.7141C36.3142 5.7141 35.2007 6.2591 35.2007 7.55003C35.2007 8.7885 36.2398 9.1506 37.3264 9.33166C38.3511 9.51092 38.7749 9.59962 38.7749 10.045C38.7749 10.5339 38.3132 10.7349 37.6884 10.7349C37.0821 10.7487 36.4888 10.5573 36.0046 10.1917C35.946 10.1451 35.8715 10.1229 35.7968 10.13Z" fill="#494A4C"/>
<path d="M40.9965 11.4392V4.07013C40.9965 3.99328 41.0272 3.9196 41.0814 3.86526C41.1359 3.81095 41.2093 3.78041 41.2863 3.78041H42.1209C42.1979 3.78041 42.2716 3.81095 42.3258 3.86526C42.38 3.9196 42.4107 3.99328 42.4107 4.07013V6.58686C42.6185 6.30953 42.8895 6.08594 43.2013 5.93476C43.5132 5.78357 43.8568 5.70918 44.2033 5.71778C45.438 5.71778 46.1621 6.59769 46.1621 7.85427V11.4392C46.1621 11.5161 46.1318 11.5898 46.0776 11.6441C46.023 11.6984 45.9493 11.7289 45.8727 11.7289H45.038C44.9611 11.7289 44.8873 11.6984 44.8331 11.6441C44.7786 11.5898 44.7482 11.5161 44.7482 11.4392V8.18015C44.7482 7.55552 44.5473 6.9888 43.747 6.9888C42.9882 6.9888 42.4107 7.52293 42.4107 8.41372V11.441C42.4107 11.5179 42.38 11.5916 42.3258 11.6459C42.2716 11.7002 42.1979 11.7307 42.1209 11.7307H41.2863C41.248 11.731 41.21 11.7236 41.1746 11.709C41.1392 11.6944 41.1074 11.6729 41.0803 11.6458C41.0532 11.6186 41.0319 11.5864 41.0178 11.5509C41.0033 11.5155 40.9961 11.4775 40.9965 11.4392Z" fill="#494A4C"/>
<path fill-rule="evenodd" clip-rule="evenodd" d="M54.7463 9.75992L55.3472 11.5343C55.3653 11.592 55.4011 11.6426 55.4495 11.679C55.4979 11.7154 55.5564 11.7357 55.6171 11.7371H56.6509C56.6975 11.7373 56.7438 11.7262 56.7853 11.7048C56.8269 11.6833 56.8623 11.6521 56.8894 11.6139C56.9161 11.5757 56.9335 11.5315 56.9396 11.4851C56.9454 11.4388 56.9403 11.3917 56.9244 11.3478L54.1992 3.9787C54.1783 3.92301 54.1411 3.87503 54.0923 3.84106C54.0435 3.8071 53.9853 3.78881 53.9261 3.78856H52.588C52.5295 3.78795 52.4728 3.80489 52.424 3.8372C52.3756 3.8695 52.338 3.91564 52.3163 3.96963L49.5806 11.3406C49.5644 11.3843 49.5593 11.4313 49.5651 11.4774C49.5712 11.5236 49.5882 11.5677 49.615 11.6059C49.6417 11.6441 49.6771 11.6753 49.7183 11.6969C49.7595 11.7185 49.8054 11.7298 49.852 11.7298H50.8316C50.8919 11.73 50.9508 11.7112 51 11.6761C51.0488 11.641 51.0856 11.5914 51.1051 11.5343L51.7078 9.75992H54.7463ZM52.0735 8.52326L53.2432 5.07227L54.3676 8.52326H52.0735Z" fill="#494A4C"/>
<path fill-rule="evenodd" clip-rule="evenodd" d="M59.0228 6.14119V6.59749C59.2288 6.31272 59.5016 6.08334 59.8178 5.92978C60.1336 5.77625 60.4826 5.70333 60.8335 5.71753C62.436 5.71753 63.4716 7.04287 63.4716 8.77925C63.4716 10.5156 62.436 11.8572 60.8335 11.8572C60.4815 11.8706 60.1318 11.7961 59.8156 11.6406C59.4998 11.4851 59.2273 11.2534 59.0228 10.9664V13.3691C59.0228 13.4459 58.9925 13.5196 58.9383 13.5739C58.8837 13.6283 58.81 13.6588 58.7334 13.6588H57.8987C57.8217 13.6588 57.748 13.6283 57.6938 13.5739C57.6393 13.5196 57.6089 13.4459 57.6089 13.3691V6.1267C57.6089 6.04989 57.6393 5.97621 57.6938 5.92186C57.748 5.86756 57.8217 5.83702 57.8987 5.83702H58.7334C58.7724 5.83699 58.8114 5.84494 58.8476 5.86037C58.8837 5.87583 58.9162 5.89849 58.9433 5.92692C58.9704 5.9554 58.9914 5.98904 59.0051 6.02589C59.0188 6.06271 59.025 6.10195 59.0228 6.14119ZM60.5368 10.6279C61.516 10.6279 61.9851 9.79135 61.9851 8.77925C61.9851 7.76712 61.507 6.95235 60.5368 6.95235C59.5663 6.95235 59.0228 7.76532 59.0228 8.77925C59.0228 9.79315 59.5392 10.6279 60.5368 10.6279Z" fill="#494A4C"/>
<path fill-rule="evenodd" clip-rule="evenodd" d="M65.7585 6.59741V6.14112C65.7606 6.10181 65.7548 6.06246 65.7415 6.02553C65.7277 5.98856 65.7068 5.95478 65.6797 5.92627C65.6526 5.89776 65.6197 5.87514 65.5836 5.85978C65.5471 5.84439 65.5084 5.83662 65.469 5.83695H64.6343C64.5574 5.83695 64.4837 5.86748 64.4295 5.92179C64.3749 5.97613 64.3445 6.04981 64.3445 6.12663V13.369C64.3445 13.4458 64.3749 13.5195 64.4295 13.5739C64.4837 13.6282 64.5574 13.6587 64.6343 13.6587H65.469C65.5456 13.6587 65.6193 13.6282 65.6735 13.5739C65.7281 13.5195 65.7585 13.4458 65.7585 13.369V10.9664C65.963 11.2531 66.2354 11.4846 66.5516 11.6401C66.8674 11.7956 67.2172 11.8702 67.5691 11.8572C69.1735 11.8572 70.209 10.5155 70.209 8.77914C70.209 7.04279 69.1735 5.71746 67.5691 5.71746C67.2183 5.70358 66.8692 5.77664 66.5534 5.93014C66.2376 6.08367 65.9644 6.3129 65.7585 6.59741ZM68.7225 8.77914C68.7225 9.79127 68.2535 10.6278 67.2739 10.6278C66.2817 10.6278 65.7585 9.79308 65.7585 8.77914C65.7585 7.76524 66.3037 6.95228 67.2739 6.95228C68.2445 6.95228 68.7225 7.76705 68.7225 8.77914Z" fill="#494A4C"/>
<path fill-rule="evenodd" clip-rule="evenodd" d="M3.57629 0C1.60116 0 0 1.60115 0 3.57626V11.9395C0 13.9146 1.60116 15.5157 3.57629 15.5157H11.8565C13.8316 15.5157 15.4328 13.9146 15.4328 11.9395V3.57626C15.4328 1.60114 13.8316 0 11.8565 0H3.57629Z" fill="#00D632"/>
<path fill-rule="evenodd" clip-rule="evenodd" d="M10.2229 5.77088C9.63381 5.27231 8.88736 4.9982 8.11562 4.99701C7.47977 4.99701 6.84397 5.20774 6.84397 5.79267C6.84397 6.32592 7.41007 6.53459 8.10745 6.79164C8.17506 6.81654 8.24393 6.84194 8.31363 6.8681C9.69246 7.33317 10.8278 7.90357 10.8278 9.25514C10.8278 10.723 9.68881 11.7258 7.82492 11.8402L7.656 12.6268C7.6242 12.7737 7.49387 12.8783 7.34351 12.8775H6.17181C6.07595 12.8752 5.98608 12.8304 5.92642 12.7554C5.8668 12.6803 5.84357 12.5826 5.86297 12.4887L6.04465 11.6586C5.3411 11.4791 4.69434 11.1248 4.1644 10.6285C4.10301 10.5693 4.06836 10.4876 4.06836 10.4023C4.06836 10.317 4.10301 10.2354 4.1644 10.1762L4.81477 9.54038C4.93777 9.4194 5.13503 9.4194 5.25802 9.54038C5.8538 10.1088 6.64921 10.42 7.47251 10.4069C8.32089 10.4069 8.89676 10.0472 8.89676 9.47678C8.89676 8.96109 8.4246 8.78837 7.52856 8.46064C7.43349 8.42585 7.33365 8.38935 7.22908 8.35047C6.07732 7.93992 4.98735 7.35316 4.98735 5.98887C4.98735 4.41024 6.30623 3.63999 7.86127 3.56367L8.02478 2.76255C8.05715 2.61701 8.18633 2.51353 8.33542 2.51367H9.50351C9.59869 2.51337 9.68891 2.55595 9.74919 2.6296C9.80942 2.70325 9.8333 2.80013 9.81415 2.89335L9.63251 3.78893C10.2272 3.98332 10.7782 4.29187 11.2548 4.69725C11.3205 4.75372 11.3596 4.8351 11.3627 4.92167C11.3658 5.00825 11.3326 5.09218 11.2711 5.15321L10.6643 5.76181C10.5429 5.88134 10.3492 5.88531 10.2229 5.77088Z" fill="white"/>
</svg>
