<svg width="20" height="22" viewBox="0 0 20 22" fill="none" xmlns="http://www.w3.org/2000/svg">
<path d="M9.96419 5.08303e-06C10.3584 -4.40103e-05 10.7233 -0.000403388 11.0208 0.038091C11.3479 0.0804124 11.7048 0.181505 12.0023 0.467779C12.3035 0.757824 12.4135 1.1124 12.4593 1.44043C12.5001 1.73258 12.5004 2.08926 12.5003 2.46583L12.5003 5.67383L13.0325 4.70997C13.0396 4.69717 13.047 4.68461 13.054 4.67188C13.2551 4.30755 13.4403 3.97188 13.6263 3.71973C13.83 3.44372 14.1033 3.16898 14.5179 3.05274C14.9361 2.93557 15.3124 3.03123 15.6282 3.167C15.913 3.28944 16.2366 3.48492 16.5833 3.69434C16.596 3.70202 16.6086 3.71006 16.6214 3.71778L16.8187 3.83692C16.8318 3.84486 16.8456 3.85246 16.8587 3.86036C17.2274 4.08289 17.5676 4.28889 17.8216 4.49512C18.1037 4.72426 18.366 5.02115 18.4632 5.45411C18.5597 5.88434 18.4524 6.26599 18.3001 6.59571C18.1616 6.89574 17.945 7.23613 17.7083 7.6084C17.7003 7.62102 17.692 7.6338 17.6839 7.64649L17.4564 8.00293L18.388 8.00879C19.0854 8.09024 19.5989 8.73214 19.4847 9.44629L17.2425 17.3096L17.2298 17.3535C16.9892 18.1937 16.791 18.8883 16.5628 19.4316C16.3227 20.0035 16.0208 20.4822 15.5335 20.8447C15.0475 21.2063 14.5 21.36 13.8792 21.4316C13.2871 21.5 12.5552 21.5 11.6654 21.5H7.83626C6.94615 21.5 6.21365 21.5 5.62141 21.4316C5.00057 21.36 4.45315 21.2063 3.96712 20.8447C3.47996 20.4822 3.17893 20.0034 2.9388 19.4316C2.71062 18.8882 2.51142 18.1938 2.27083 17.3535L0.0159449 9.44629C-0.0983367 8.73177 0.415577 8.0902 1.11262 8.00879L2.59016 8.00001C2.74124 8.00002 2.89111 8.00695 3.03938 8.02051L1.69661 5.61329C1.68949 5.60053 1.6822 5.58788 1.67512 5.5752C1.46694 5.20209 1.27637 4.86063 1.15755 4.56153C1.02683 4.23234 0.941033 3.85724 1.04817 3.44336C1.15586 3.02738 1.41393 2.74266 1.69075 2.52149C1.94016 2.32228 2.27271 2.12392 2.63216 1.90918C2.64486 1.9016 2.65747 1.89338 2.67024 1.88575L2.89094 1.75391C2.90425 1.74596 2.91775 1.73839 2.93098 1.73047C3.30823 1.50498 3.65589 1.29653 3.96028 1.16797C4.29594 1.02625 4.69256 0.930609 5.12825 1.06446C5.56068 1.19731 5.83681 1.49661 6.03938 1.79883C6.22512 2.07601 6.40575 2.44503 6.60384 2.84864C6.61049 2.8622 6.61765 2.87601 6.62434 2.88965L7.00032 3.65528V2.46583C7.00026 2.08926 6.99955 1.73258 7.04036 1.44043C7.0862 1.11245 7.19626 0.757807 7.49739 0.467779C7.79475 0.181567 8.15185 0.080428 8.47884 0.038091C8.77649 -0.000426946 9.14213 -4.40311e-05 9.53645 5.08303e-06L9.96419 5.08303e-06ZM9.75325 14.5C9.0654 14.5 8.50814 15.0597 8.50813 15.75C8.50813 16.4403 9.0654 17 9.75325 17H9.76204C10.4499 17 11.0081 16.4404 11.0081 15.75C11.0081 15.0597 10.4499 14.5 9.76204 14.5H9.75325ZM9.57844 1.50001C9.1271 1.50001 8.86083 1.50184 8.67122 1.52637C8.60638 1.53478 8.56715 1.54403 8.54524 1.55079C8.53988 1.56955 8.53336 1.60064 8.52669 1.64844C8.50217 1.82412 8.50032 2.07325 8.50032 2.50977L8.50032 11.5L11.0003 11.5L11.0003 2.50977C11.0003 2.07332 10.9985 1.82411 10.974 1.64844C10.9673 1.60056 10.9598 1.56954 10.9544 1.55079C10.9324 1.54402 10.8933 1.53477 10.8284 1.52637C10.6388 1.50183 10.3726 1.50001 9.92122 1.50001H9.57844ZM14.8333 4.61036C14.7133 4.77304 14.5755 5.01893 14.346 5.43458L12.5003 8.77735V10.7998C13.0891 9.52009 14.217 8.57279 15.5618 8.18848L16.4183 6.8418C16.6871 6.41887 16.8466 6.16425 16.9378 5.9668C16.9796 5.87621 16.994 5.82562 16.9984 5.80079C17.0003 5.79013 17.0003 5.78506 17.0003 5.78418V5.78223C16.9996 5.78095 16.997 5.77839 16.9935 5.77344C16.9812 5.75642 16.9503 5.71932 16.8763 5.65918C16.7136 5.52702 16.4649 5.37565 16.0433 5.1211L15.846 5.00098C15.4472 4.7602 15.2135 4.62142 15.0355 4.54493C14.98 4.52109 14.9436 4.5092 14.9222 4.50391C14.9047 4.52036 14.8758 4.55279 14.8333 4.61036ZM4.54427 2.54981C4.34837 2.63252 4.09175 2.78428 3.66048 3.042L3.43977 3.17383C3.02907 3.41926 2.78722 3.56561 2.62727 3.69336C2.55445 3.75153 2.52235 3.7879 2.50911 3.80567C2.50349 3.81324 2.50152 3.81693 2.5013 3.81739C2.50126 3.81744 2.50074 3.8177 2.50032 3.81934C2.49987 3.82108 2.50038 3.82221 2.50032 3.82325C2.50024 3.82505 2.49991 3.83107 2.5013 3.8418C2.50466 3.86738 2.51553 3.91825 2.5511 4.00782C2.62907 4.20415 2.76959 4.45867 3.00618 4.88282L4.96028 8.38477C5.00936 8.47282 5.03692 8.56688 5.04817 8.66114C5.89342 9.15178 6.58261 9.89129 7.00032 10.7988L7.00032 7.05958L5.27766 3.55079C5.05262 3.09239 4.91586 2.81671 4.79329 2.63379C4.7407 2.55535 4.70578 2.51821 4.68782 2.50196C4.66508 2.50596 4.6205 2.51764 4.54427 2.54981Z" fill="#D19628"/>
</svg>
