<svg width="15" height="15" viewBox="0 0 15 15" fill="none" xmlns="http://www.w3.org/2000/svg">
<path d="M7.16699 0C11.125 2.2548e-07 14.334 3.20895 14.334 7.16699C14.334 11.125 11.125 14.334 7.16699 14.334C3.20895 14.334 0 11.125 0 7.16699C4.02642e-07 3.20895 3.20895 0 7.16699 0ZM10.2607 4.65527C9.97789 4.41956 9.557 4.45738 9.32129 4.74023L6.45508 8.17969L4.97168 6.69531C4.71143 6.43523 4.28962 6.43534 4.0293 6.69531C3.76895 6.95566 3.76895 7.37832 4.0293 7.63867L6.0293 9.63867C6.16165 9.77085 6.34341 9.84141 6.53027 9.83301C6.71739 9.82452 6.89278 9.73764 7.0127 9.59375L10.3457 5.59375C10.5813 5.31103 10.5432 4.89104 10.2607 4.65527Z" fill="#D19628"/>
</svg>
