<svg width="50" height="34" viewBox="0 0 50 34" fill="none" xmlns="http://www.w3.org/2000/svg">
<g clip-path="url(#clip0_13247_17660)">
<rect width="49.92" height="33.28" rx="2" fill="white"/>
<path d="M49.9194 22.1868C49.9194 22.1868 38.8178 29.8457 18.4883 33.2801H49.9194V22.1868Z" fill="#F48120"/>
<path d="M5.64486 12.8506H3.69727V19.6734H5.64486C6.67448 19.6734 7.41878 19.4253 8.07625 18.8918C8.85777 18.2468 9.31676 17.2792 9.31676 16.2744C9.30435 14.2524 7.80334 12.8506 5.64486 12.8506ZM7.2079 17.9863C6.78613 18.3584 6.25271 18.5321 5.38435 18.5321H5.02461V14.0167H5.38435C6.2403 14.0167 6.76132 14.1655 7.2079 14.5625C7.66688 14.9719 7.9398 15.6045 7.9398 16.262C7.9398 16.9194 7.66688 17.5769 7.2079 17.9863Z" fill="#231F20"/>
<path d="M11.2531 12.8506H9.92578V19.6734H11.2531V12.8506Z" fill="#231F20"/>
<path d="M14.5027 15.4679C13.7087 15.1702 13.473 14.9717 13.473 14.612C13.473 14.1778 13.8948 13.8553 14.4654 13.8553C14.8624 13.8553 15.1973 14.0165 15.5323 14.4135L16.227 13.5079C15.6563 13.0117 14.974 12.7512 14.2173 12.7512C13.014 12.7512 12.0837 13.5948 12.0837 14.7112C12.0837 15.654 12.5178 16.1378 13.7584 16.5844C14.2794 16.7705 14.5399 16.8945 14.6763 16.9689C14.9368 17.1426 15.0733 17.3907 15.0733 17.676C15.0733 18.2343 14.6391 18.6436 14.0437 18.6436C13.411 18.6436 12.9024 18.3211 12.5923 17.7381L11.7363 18.5692C12.3442 19.4748 13.0885 19.8717 14.0933 19.8717C15.4703 19.8717 16.4503 18.9538 16.4503 17.6264C16.4751 16.5224 16.0161 16.0262 14.5027 15.4679Z" fill="#231F20"/>
<path d="M16.8848 16.2743C16.8848 18.2839 18.4602 19.8346 20.4822 19.8346C21.0529 19.8346 21.5491 19.7229 22.1445 19.4376V17.8746C21.6111 18.408 21.1397 18.6189 20.5443 18.6189C19.2045 18.6189 18.2493 17.6513 18.2493 16.2619C18.2493 14.947 19.2293 13.9174 20.4822 13.9174C21.1149 13.9174 21.5987 14.1406 22.1445 14.6865V13.1234C21.5615 12.8257 21.0777 12.7017 20.507 12.7017C18.5098 12.7017 16.8848 14.2895 16.8848 16.2743Z" fill="#231F20"/>
<path d="M32.7124 17.4405L30.8889 12.8506H29.4375L32.3279 19.847H33.0474L35.9874 12.8506H34.5484L32.7124 17.4405Z" fill="#231F20"/>
<path d="M36.5957 19.6734H40.3668V18.5197H37.923V16.6837H40.28V15.5301H37.923V14.0167H40.3668V12.8506H36.5957V19.6734Z" fill="#231F20"/>
<path d="M45.6394 14.8724C45.6394 13.5947 44.7587 12.8628 43.2205 12.8628H41.248V19.6856H42.5754V16.9441H42.7491L44.585 19.6856H46.2225L44.0764 16.8076C45.0812 16.5967 45.6394 15.9144 45.6394 14.8724ZM42.9599 16.0013H42.5754V13.9296H42.9848C43.8159 13.9296 44.2625 14.277 44.2625 14.9468C44.2625 15.6291 43.8159 16.0013 42.9599 16.0013Z" fill="#231F20"/>
<path d="M26.2245 19.9215C28.2319 19.9215 29.8592 18.2942 29.8592 16.2868C29.8592 14.2794 28.2319 12.6521 26.2245 12.6521C24.2171 12.6521 22.5898 14.2794 22.5898 16.2868C22.5898 18.2942 24.2171 19.9215 26.2245 19.9215Z" fill="#F48120"/>
</g>
<defs>
<clipPath id="clip0_13247_17660">
<rect width="49.92" height="33.28" rx="2" fill="white"/>
</clipPath>
</defs>
</svg>
