<svg width="24" height="24" viewBox="0 0 24 24" fill="none" xmlns="http://www.w3.org/2000/svg">
<path d="M13.3711 3.05347C15.7332 1.1505 18.3442 0.983865 20.3848 1.50464C21.5785 1.80936 22.3267 2.6678 22.6133 3.67944C22.8932 4.66778 22.7359 5.79211 22.1943 6.73901C20.6752 9.39445 18.9502 11.7538 15.833 14.8279C12.8085 17.8105 9.64621 20.3101 6.60937 22.2117C4.55472 23.4978 1.73882 22.3721 1.39355 19.8523C1.24193 18.7453 1.18633 17.5589 1.34473 16.4675C1.41928 15.9539 1.54383 15.4445 1.7373 14.9685C2.33512 14.8251 3.18799 14.7722 4.01758 14.906C4.85638 15.0414 5.56637 15.3497 5.99707 15.8269C6.27461 16.1342 6.7492 16.1581 7.05664 15.8806C7.364 15.6031 7.38783 15.1285 7.11035 14.821C6.36094 13.991 5.27074 13.5892 4.25684 13.4255C3.60087 13.3197 2.93236 13.3062 2.32812 13.3601C2.19652 11.7593 2.65576 10.0976 3.79492 8.9519C5.90575 8.66753 8.77016 8.99021 11.8398 10.4695C12.2129 10.649 12.6611 10.4919 12.8408 10.1189C13.0203 9.74583 12.8633 9.29767 12.4902 9.11792C10.2648 8.04552 8.10711 7.51997 6.19434 7.39038C6.40855 6.38759 6.971 5.28076 7.92773 4.44214C8.29372 4.12134 8.71204 3.8444 9.18262 3.62769C9.42292 3.66754 9.63604 3.7011 9.8291 3.73218C10.9365 3.91044 11.3991 3.98562 12.7344 4.42261C13.7202 4.74523 15.0342 5.39433 16.2354 6.06909C16.5963 6.27181 17.0529 6.14377 17.2559 5.78296C17.4587 5.42183 17.3309 4.96435 16.9697 4.76147C15.8069 4.10823 14.4698 3.43562 13.3711 3.05347Z" fill="#D19628"/>
</svg>
