<svg width="50" height="35" viewBox="0 0 50 35" fill="none" xmlns="http://www.w3.org/2000/svg">
<path d="M0 4.34049C0 1.9433 1.9433 0 4.34049 0H45.5751C47.9723 0 49.9156 1.9433 49.9156 4.34049V30.3834C49.9156 32.7806 47.9723 34.7239 45.5751 34.7239H4.34048C1.9433 34.7239 0 32.7806 0 30.3834V4.34049Z" fill="white"/>
<path d="M18.2725 7.23413C23.5692 7.23417 27.8633 11.578 27.8633 16.9363C27.8632 22.2945 23.5692 26.6384 18.2725 26.6384C12.9757 26.6384 8.68168 22.2946 8.68164 16.9363C8.68164 11.578 12.9756 7.23413 18.2725 7.23413Z" fill="#ED0006"/>
<path d="M30.7139 7.23413C36.0107 7.23417 40.3047 11.578 40.3047 16.9363C40.3047 22.2945 36.0106 26.6384 30.7139 26.6384C25.4171 26.6384 21.1231 22.2946 21.123 16.9363C21.123 11.578 25.417 7.23413 30.7139 7.23413Z" fill="#0099DF"/>
<path d="M24.4941 9.55493C26.5556 11.3345 27.8643 13.9804 27.8643 16.9368C27.8641 19.8927 26.5552 22.5372 24.4941 24.3167C22.4335 22.5372 21.1251 19.8923 21.125 16.9368C21.125 13.9808 22.4331 11.3345 24.4941 9.55493Z" fill="#6C6BBD"/>
</svg>
