<svg width="22" height="22" viewBox="0 0 22 22" fill="none" xmlns="http://www.w3.org/2000/svg">
<path d="M1.45312 16.9775C1.80035 17.5432 2.24346 18.1419 2.80078 18.6992C3.35812 19.2566 3.95683 19.6996 4.52246 20.0469C4.31138 20.3618 4.09501 20.6433 3.90918 20.8291C3.0149 21.7234 1.56518 21.7234 0.670898 20.8291C-0.223384 19.9348 -0.223384 18.4851 0.670898 17.5908C0.856743 17.405 1.13822 17.1886 1.45312 16.9775ZM12.4189 2.5166C13.091 1.84453 14.1369 1.51388 15.1152 1.94141C15.8693 2.27095 16.8959 2.83146 17.7803 3.71582C18.6647 4.60023 19.2252 5.62681 19.5547 6.38086C19.9822 7.35921 19.6516 8.40508 18.9795 9.07715L9.08105 18.9756C8.40899 19.6477 7.36311 19.9783 6.38477 19.5508C5.63072 19.2213 4.60413 18.6608 3.71973 17.7764C2.83536 16.892 2.27485 15.8654 1.94531 15.1113C1.51778 14.133 1.84844 13.0871 2.52051 12.415L12.4189 2.5166ZM17.5908 0.670898C18.4851 -0.223385 19.9348 -0.223384 20.8291 0.670898C21.7234 1.56518 21.7234 3.0149 20.8291 3.90918C20.6433 4.09501 20.3618 4.31138 20.0469 4.52246C19.6996 3.95683 19.2565 3.35811 18.6992 2.80078C18.1419 2.24346 17.5432 1.80035 16.9775 1.45312C17.1886 1.13822 17.405 0.856743 17.5908 0.670898Z" fill="#D19628"/>
</svg>
