<svg width="50" height="10" viewBox="0 0 50 10" fill="none" xmlns="http://www.w3.org/2000/svg">
<path d="M8.20529 0C8.54233 0.556551 8.69427 1.1298 8.69427 1.85394C8.69427 4.16354 6.72228 7.1639 5.12178 9.27071H1.46612L0 0.505681L3.20092 0.201841L3.97608 6.43872C4.70038 5.25899 5.59416 3.40507 5.59416 2.14108C5.59416 1.44922 5.47563 0.977968 5.29034 0.589947L8.20529 0Z" fill="#008CFF"/>
<path d="M12.3543 3.86025C12.9433 3.86025 14.4263 3.59084 14.4263 2.74817C14.4263 2.34354 14.1401 2.14171 13.8029 2.14171C13.2129 2.14171 12.4387 2.84905 12.3543 3.86025ZM12.2868 5.52914C12.2868 6.55807 12.8591 6.96174 13.6177 6.96174C14.4438 6.96174 15.2348 6.75989 16.2629 6.23752L15.8757 8.86654C15.1513 9.22038 14.0224 9.4565 12.9266 9.4565C10.1471 9.4565 9.15234 7.77116 9.15234 5.66426C9.15234 2.93351 10.7705 0.0339355 14.1066 0.0339355C15.9433 0.0339355 16.9704 1.06277 16.9704 2.49537C16.9706 4.80491 14.0058 5.51243 12.2868 5.52914Z" fill="#008CFF"/>
<path d="M26.2074 2.02333C26.2074 2.36039 26.1564 2.84928 26.1054 3.16879L25.145 9.23715H22.0282L22.9043 3.67439C22.9209 3.52351 22.972 3.21976 22.972 3.05123C22.972 2.64658 22.7191 2.54563 22.4152 2.54563C22.0114 2.54563 21.6067 2.73084 21.3371 2.86608L20.3434 9.23722H17.209L18.6409 0.151834H21.3537L21.3881 0.877007C22.0281 0.455676 22.8708 2.78032e-08 24.0665 2.78032e-08C25.6507 -0.000173204 26.2074 0.809178 26.2074 2.02333Z" fill="#008CFF"/>
<path d="M35.4605 1.02852C36.3532 0.388648 37.1961 0.0339355 38.3582 0.0339355C39.9586 0.0339355 40.5153 0.843287 40.5153 2.05744C40.5153 2.39452 40.4643 2.88341 40.4135 3.20292L39.4541 9.27126H36.3364L37.2293 3.59093C37.2457 3.43908 37.2803 3.25387 37.2803 3.13638C37.2803 2.68078 37.0274 2.57973 36.7234 2.57973C36.3364 2.57973 35.9493 2.74827 35.6619 2.90019L34.6683 9.27135H31.5516L32.4443 3.59101C32.4607 3.43918 32.4944 3.25396 32.4944 3.13647C32.4944 2.68087 32.2412 2.57983 31.9384 2.57983C31.5338 2.57983 31.1299 2.76504 30.8603 2.90028L29.8658 9.27145H26.7324L28.1643 0.186028H30.844L30.9282 0.944509C31.5516 0.489958 32.3935 0.0342813 33.5224 0.0342813C34.4999 0.0339353 35.1396 0.455352 35.4605 1.02852Z" fill="#008CFF"/>
<path d="M46.7175 3.67469C46.7175 2.933 46.5319 2.42733 45.9764 2.42733C44.7464 2.42733 44.4937 4.60153 44.4937 5.71378C44.4937 6.55756 44.7298 7.07977 45.2854 7.07977C46.4479 7.07977 46.7175 4.78684 46.7175 3.67469ZM41.3262 5.57951C41.3262 2.71437 42.8423 0.0334473 46.3304 0.0334473C48.9588 0.0334473 49.9197 1.58458 49.9197 3.72557C49.9197 6.55746 48.4199 9.49016 44.8475 9.49016C42.2023 9.49016 41.3262 7.75381 41.3262 5.57951Z" fill="#008CFF"/>
</svg>
