<svg width="50" height="35" viewBox="0 0 50 35" fill="none" xmlns="http://www.w3.org/2000/svg">
<path d="M0 4.34049C0 1.9433 1.9433 0 4.34049 0H45.5751C47.9723 0 49.9156 1.9433 49.9156 4.34049V30.3834C49.9156 32.7806 47.9723 34.7239 45.5751 34.7239H4.34048C1.9433 34.7239 0 32.7806 0 30.3834V4.34049Z" fill="white"/>
<path fill-rule="evenodd" clip-rule="evenodd" d="M15.5543 22.9441H12.5742L10.3395 14.1678C10.2334 13.7641 10.0082 13.4072 9.67694 13.239C8.85019 12.8163 7.93916 12.4799 6.94531 12.3102V11.9723H11.746C12.4086 11.9723 12.9055 12.4799 12.9883 13.0693L14.1478 19.4L17.1264 11.9723H20.0237L15.5543 22.9441ZM21.6803 22.9441H18.8658L21.1834 11.9723H23.9978L21.6803 22.9441ZM27.639 15.0118C27.7219 14.4209 28.2188 14.083 28.7985 14.083C29.7096 13.9981 30.702 14.1678 31.5302 14.5891L32.0271 12.2268C31.1989 11.8889 30.2879 11.7192 29.4611 11.7192C26.7295 11.7192 24.7418 13.239 24.7418 15.3482C24.7418 16.9528 26.1497 17.7954 27.1436 18.3029C28.2188 18.809 28.6329 19.1469 28.5501 19.653C28.5501 20.4121 27.7219 20.75 26.8951 20.75C25.9013 20.75 24.9074 20.497 23.9978 20.0743L23.5009 22.438C24.4948 22.8593 25.57 23.0289 26.5638 23.0289C29.6267 23.1123 31.5302 21.594 31.5302 19.3151C31.5302 16.4453 27.639 16.2771 27.639 15.0118ZM41.3799 22.9441L39.1452 11.9723H36.7449C36.248 11.9723 35.751 12.3102 35.5854 12.8163L31.4473 22.9441H34.3445L34.9228 21.341H38.4827L38.814 22.9441H41.3799ZM37.159 14.927L37.9858 19.0621H35.6683L37.159 14.927Z" fill="#172B85"/>
</svg>
