<svg width="50" height="15" viewBox="0 0 50 15" fill="none" xmlns="http://www.w3.org/2000/svg">
<path fill-rule="evenodd" clip-rule="evenodd" d="M0 5.17235C0 3.36186 0 2.45661 0.352345 1.76509C0.662276 1.15682 1.15682 0.662276 1.76509 0.352345C2.45661 0 3.36186 0 5.17235 0H8.93405C10.7445 0 11.6498 0 12.3413 0.352345C12.9496 0.662276 13.4441 1.15682 13.7541 1.76509C14.1064 2.45661 14.1064 3.36186 14.1064 5.17235V8.93405C14.1064 10.7445 14.1064 11.6498 13.7541 12.3413C13.4441 12.9496 12.9496 13.4441 12.3413 13.7541C11.6498 14.1064 10.7445 14.1064 8.93405 14.1064H5.17235C3.36186 14.1064 2.45661 14.1064 1.76509 13.7541C1.15682 13.4441 0.662276 12.9496 0.352345 12.3413C0 11.6498 0 10.7445 0 8.93405V5.17235ZM6.35639 3.18593L4.08564 3.16508L4.08564 4.66736H7.84889L3.93799 9.66635V10.9376H6.35639V12.4018H7.80743V10.9376H10.2742C10.2949 10.8791 10.3022 10.7211 10.1709 10.5764C9.95326 10.3353 9.78015 10.0832 9.62123 9.76625C9.58541 9.69652 9.55385 9.61998 9.52858 9.5587C9.50266 9.49584 9.48335 9.44902 9.47285 9.44204C9.22255 9.4306 8.35922 9.42659 7.5813 9.42296H7.5812C6.84945 9.41956 6.19328 9.4165 6.19401 9.40796L10.1084 4.37833V3.18593H7.80743V1.70449H6.35639V3.18593Z" fill="#6627CF"/>
<path d="M21.2805 2.70476L18.5523 2.67957L18.5523 4.49406H23.0736L18.375 10.5319V12.0674H21.2805V13.8359H23.0238V12.0674H25.9875C26.0124 11.9967 26.0211 11.8059 25.8634 11.6311C25.6019 11.3398 25.3939 11.0354 25.203 10.6526C25.16 10.5684 25.122 10.476 25.0917 10.402C25.0605 10.326 25.0373 10.2694 25.0247 10.261C24.724 10.2472 23.6866 10.2423 22.752 10.238L22.7516 10.238H22.7513C21.8725 10.2338 21.0845 10.2302 21.0854 10.2198L25.7882 4.14496V2.70476H23.0238V0.915444H21.2805V2.70476Z" fill="#6627CF"/>
<path d="M33.8698 1.86003C33.8283 1.87667 33.8158 2.79629 33.8158 6.2792V6.55069C33.8158 10.4944 33.8158 10.8748 33.9591 11.1895C33.9744 11.2231 33.9913 11.2559 34.01 11.2921L34.0101 11.2923L34.0192 11.3101C34.206 11.6721 34.6626 11.9967 35.1732 12.1298C35.4554 12.2047 36.2856 12.213 36.6052 12.1465C37.0161 12.0591 37.095 11.9342 36.9331 11.6138C36.8293 11.4141 36.6923 10.9772 36.6591 10.7358C36.6135 10.4487 36.5554 10.4029 36.2067 10.4113C36.0407 10.4154 35.8829 10.4029 35.8539 10.3863C35.6837 10.2781 35.6837 10.249 35.6837 6.03369C35.6837 3.32476 35.6712 1.96406 35.6422 1.90996C35.6007 1.83506 35.5467 1.8309 34.7581 1.83506C34.2973 1.83506 33.8947 1.84755 33.8698 1.86003Z" fill="#6627CF"/>
<path d="M37.6761 1.87251C37.6221 1.9058 37.6138 2.43843 37.6138 6.25007C37.6138 10.3572 37.618 10.6068 37.6927 10.8939C37.8338 11.4599 38.1534 11.8052 38.7594 12.0591C38.9919 12.1548 39.0956 12.1714 39.5647 12.1839C40.1914 12.2006 40.511 12.1548 40.8307 11.9925C41.1461 11.8385 41.1544 11.7303 40.8846 11.335C40.7767 11.1769 40.6107 10.9064 40.5193 10.7358L40.3533 10.4237L40.0503 10.4196C39.6726 10.4112 39.6352 10.3946 39.5647 10.2157C39.5107 10.095 39.5024 9.47498 39.5024 6.03369C39.5024 3.32476 39.49 1.96405 39.4609 1.90996C39.4194 1.83506 39.3654 1.83089 38.5768 1.83089C38.1161 1.83089 37.7093 1.8517 37.6761 1.87251Z" fill="#6627CF"/>
<path fill-rule="evenodd" clip-rule="evenodd" d="M48.7421 4.01136C48.713 3.9323 48.7172 3.15832 48.7462 3.10839C48.7545 3.09174 48.8832 3.07926 49.0326 3.07926C49.3315 3.07926 49.4643 3.16248 49.4643 3.34973C49.4643 3.45376 49.3605 3.59108 49.2526 3.62853C49.2153 3.64102 49.2402 3.70343 49.3315 3.83659C49.4851 4.0613 49.4892 4.07794 49.3896 4.07794C49.3439 4.07794 49.2692 3.99472 49.1945 3.86988C49.1032 3.72008 49.0451 3.66182 48.9787 3.66182C48.8915 3.66182 48.8832 3.68263 48.8832 3.86988C48.8832 4.01968 48.8666 4.07794 48.8251 4.07794C48.7919 4.07794 48.7545 4.04881 48.7421 4.01136ZM49.29 3.3747C49.2983 3.32061 49.2817 3.25819 49.2485 3.24154C49.2194 3.22074 49.1239 3.20409 49.0409 3.20409C48.8873 3.20409 48.8832 3.20825 48.8832 3.3539V3.49954L49.0824 3.48705C49.2526 3.47457 49.2775 3.46209 49.29 3.3747Z" fill="#6627CF"/>
<path fill-rule="evenodd" clip-rule="evenodd" d="M48.2024 3.55779C48.2066 3.18744 48.3809 2.92113 48.7171 2.76717C48.9454 2.6673 49.3314 2.70475 49.5514 2.85455C49.9748 3.14167 50.0454 3.78249 49.7009 4.15284C49.4311 4.44412 48.9122 4.50654 48.5885 4.286C48.327 4.11539 48.1983 3.87404 48.2024 3.55779ZM49.5224 4.11955C49.9209 3.76585 49.8503 3.15832 49.3813 2.92113C49.1737 2.8171 48.962 2.80462 48.7794 2.88784C48.107 3.19161 48.2481 4.20693 48.9703 4.27767C49.2318 4.30264 49.3522 4.26935 49.5224 4.11955Z" fill="#6627CF"/>
<path fill-rule="evenodd" clip-rule="evenodd" d="M28.6481 4.47325C28.6273 4.48157 28.4654 4.51902 28.2953 4.55648C27.2285 4.80199 26.2863 5.62174 25.8878 6.66203C25.6678 7.23627 25.589 7.68152 25.5848 8.34315C25.5807 9.27109 25.7674 9.95353 26.195 10.6027C26.6765 11.3309 27.3821 11.8261 28.2953 12.0757C28.6066 12.159 28.7436 12.1714 29.4575 12.1714C30.1631 12.1714 30.3084 12.1589 30.6031 12.0799C31.3336 11.876 31.9563 11.5389 32.4585 11.0604C32.7781 10.7608 32.774 10.6776 32.4502 10.4279C32.3174 10.3239 32.0766 10.0992 31.9189 9.9244C31.7197 9.71218 31.5993 9.61231 31.537 9.61231C31.4789 9.61231 31.3461 9.69553 31.2174 9.82037C30.7733 10.224 30.2129 10.4154 29.4782 10.4113C28.8058 10.4071 28.316 10.2323 28.0047 9.87446C27.847 9.69553 27.6477 9.28774 27.6062 9.05887L27.5813 8.90491H30.1673C31.591 8.90491 32.7823 8.88826 32.8113 8.86746C32.9483 8.78007 32.9815 8.1767 32.8819 7.51924C32.6453 5.94631 31.7072 4.88937 30.2337 4.53567C29.9722 4.47325 29.7563 4.45245 29.2915 4.45661C28.9594 4.45661 28.673 4.46493 28.6481 4.47325ZM29.7563 6.07947C30.0593 6.14188 30.4329 6.34994 30.6072 6.54968C30.7691 6.73277 30.9352 7.06151 30.9767 7.27373L31.0057 7.40688H27.6228L27.6519 7.27373C27.7764 6.71197 28.2579 6.24175 28.8556 6.09195C29.1213 6.02537 29.4782 6.02121 29.7563 6.07947Z" fill="#6627CF"/>
<path fill-rule="evenodd" clip-rule="evenodd" d="M43.7362 4.5107C42.2626 4.83943 41.2664 5.87973 40.9551 7.4152C40.7684 8.32234 40.8721 9.37928 41.2249 10.1366C41.7064 11.1852 42.5822 11.8635 43.7777 12.109C44.1554 12.1881 44.3048 12.1964 44.8984 12.1798C45.4006 12.1631 45.6704 12.134 45.9029 12.0716C46.6126 11.8843 47.2353 11.5431 47.7126 11.0854C48.0779 10.7317 48.0779 10.715 47.6835 10.3863C47.5009 10.2365 47.256 9.9993 47.1398 9.86198C46.87 9.54989 46.7994 9.54573 46.4964 9.82036C46.044 10.2323 45.5044 10.4154 44.7531 10.4113C43.6988 10.4071 43.0845 9.95352 42.8852 9.03806L42.8562 8.93008H48.1152C48.2937 8.80108 48.2273 7.43601 48.0115 6.80351C47.9699 6.67868 47.8579 6.429 47.7666 6.25423C47.2809 5.32213 46.5047 4.74373 45.4255 4.51486C45.081 4.43996 44.0641 4.43996 43.7362 4.5107ZM45.0312 6.07946C45.3134 6.14188 45.604 6.28752 45.8115 6.47478C45.9859 6.63706 46.2681 7.14889 46.2681 7.30701V7.40688H42.8977L42.9268 7.29037C43.1426 6.39988 44.0558 5.87141 45.0312 6.07946Z" fill="#6627CF"/>
</svg>
